Genre:Comedy | Family
Language:English
IMDb:http://www.imdb.com/title/tt1392197/
Video Source::FTP RU :Thanks.
Audio Source::IMAGINE CAM:Thanks.
Subtitles: ROMANA
Encoder: Tony2
..........................................
General
Complete name : Marmaduke 2010 DVDSCR XviD FEEL-FREE
Format : AVI
Format/Info : Audio Video Interleave
File size : 796 MiB
...........................................
Video
Format : xvid
Codec ID : xvid
Bit rate : 1 201 Kbps
Width : 720 pixels
Height : 304 pixels
Display aspect ratio : 2.35:1
Frame rate : 24.000 fps
Resolution : 24 bits
Bits/(Pixel*Frame) : 0.229
Stream size : 713 MiB (90%)
............................................
Audio
ID : 1
Format : MPEG Audio
Format version : Version 1
Format profile : Layer 3
Format settings, Mode : Joint stereo / MS Stereo
Codec ID : 55
Codec ID/Hint : MP3
Duration : 1h 22mn
Bit rate mode : Constant
Bit rate : 128 Kbps
Channel(s) : 2 channels
Sampling rate : 48.0 KHz
Resolution : 16 bits
Stream size : 76.0 MiB (10%)
Alignment : Aligned on interleaves
Interleave, duration : 24 ms (0.58 video frame)
Interleave, preload duration : 24 ms
.............................................
Plot:
A suburban family moves to a new neighborhood with their large yet lovable Great Dane, who has a tendency to wreak havoc in his own oblivious way
...................................................
Screenshots: 
http://postimg.com/image/18000/17404.jpg 
http://postimg.com/image/18000/17405.jpg 
http://postimg.com/image/18000/17406.jpg
........................................................